<svg width="274" height="18" xmlns="http://www.w3.org/2000/svg">
  <path d="M15.17 17v-1.58a17.18 17.18 0 0 1-5.9 1.77c-.73.08-1.47.13-2.2.13-.87 0-1.71-.09-2.53-.25a6.94 6.94 0 0 1-2.14-.8 4.45 4.45 0 0 1-1.51-1.44 4 4 0 0 1-.57-2.18c0-1.08.3-1.99.9-2.7a6.3 6.3 0 0 1 2.71-1.79A21.3 21.3 0 0 1 8.55 7.1c1.87-.25 4.07-.45 6.62-.59v-.34c0-.26-.07-.53-.2-.78-.15-.27-.4-.5-.78-.7-.37-.2-.88-.36-1.53-.49-.64-.12-1.46-.18-2.46-.18a24.6 24.6 0 0 0-8.34 1.54V1.67A32.35 32.35 0 0 1 5.82.93 34.64 34.64 0 0 1 10.2.61c1.35 0 2.6.1 3.74.34 1.14.21 2.12.56 2.94 1.03a5.4 5.4 0 0 1 1.94 1.78c.47.72.7 1.57.7 2.56V17h-4.35Zm0-7.35c-1.67.06-3.1.15-4.26.27-1.17.12-2.14.26-2.91.41-.77.16-1.38.33-1.83.5a3.7 3.7 0 0 0-.98.56c-.22.18-.36.37-.41.56-.05.19-.07.36-.07.51 0 .2.05.38.15.56.1.17.28.32.53.45.25.14.6.24 1.02.32a13.1 13.1 0 0 0 8.77-2.02V9.65ZM40.26 4.54a11.07 11.07 0 0 0-1.29-.35 9.77 9.77 0 0 0-2.07-.24c-.78 0-1.51.1-2.2.29a10.62 10.62 0 0 0-3.53 1.84c-.5.4-.95.8-1.37 1.23V17h-4.35V.9h4.35V3.5c.52-.39 1.05-.76 1.6-1.12.56-.37 1.13-.7 1.72-.98.6-.28 1.24-.5 1.9-.66A8.39 8.39 0 0 1 38 .54a13.65 13.65 0 0 1 2.27.36v3.64ZM61.73 15.9A23.44 23.44 0 0 1 58.26 17c-.6.14-1.25.25-1.93.32a20.88 20.88 0 0 1-6.7-.42 10.77 10.77 0 0 1-3.57-1.59c-1-.7-1.77-1.59-2.32-2.64a7.92 7.92 0 0 1-.83-3.72 7.4 7.4 0 0 1 3.15-6.35c1-.71 2.19-1.24 3.56-1.6a20.88 20.88 0 0 1 6.7-.42 17.8 17.8 0 0 1 5.4 1.43v3.92c-.44-.24-.9-.48-1.4-.72a13.07 13.07 0 0 0-3.59-1.11c-.7-.13-1.5-.19-2.4-.19-1.36 0-2.5.14-3.4.42-.9.29-1.62.66-2.16 1.13-.54.47-.92 1-1.14 1.62a5.45 5.45 0 0 0 .28 4.33 4.33 4.33 0 0 0 2.17 1.83c.52.23 1.13.4 1.83.54a15.9 15.9 0 0 0 4.83.02 14.15 14.15 0 0 0 3.58-1.09c.5-.24.96-.49 1.4-.74v3.92ZM82.15 17v-6.71H71.1V17h-4.35V.9h4.35v5.86h11.06V.9h4.35V17h-4.35ZM92.5 17V.9h4.35V17H92.5ZM111.88 4.4V17h-4.35V4.4h-6.83V.9h18.03v3.5h-6.85ZM140.52 16.2c-1.32.44-2.64.75-3.96.94-1.31.2-2.66.3-4.03.3a17.9 17.9 0 0 1-4.7-.57 10.1 10.1 0 0 1-3.46-1.65 7.14 7.14 0 0 1-2.14-2.64 8.14 8.14 0 0 1-.74-3.53 7.81 7.81 0 0 1 2.85-6.1 9.9 9.9 0 0 1 3.3-1.8c1.3-.44 2.73-.66 4.32-.66 1.46 0 2.8.2 4 .6 1.22.39 2.26.97 3.13 1.74a7.78 7.78 0 0 1 2.03 2.86c.48 1.13.73 2.44.73 3.92v1.07h-15.87c.14.51.37.98.69 1.4.33.42.77.78 1.32 1.08.56.3 1.24.52 2.04.69a19.24 19.24 0 0 0 9.19-.82c.54-.2.97-.4 1.3-.59v3.76Zm-3-8.7a3.64 3.64 0 0 0-1.3-2.4c-.43-.34-1-.62-1.69-.84a8.5 8.5 0 0 0-2.6-.34c-.97 0-1.82.12-2.53.37-.71.24-1.3.54-1.8.9-.47.36-.84.74-1.1 1.16-.27.41-.44.8-.52 1.15h11.54ZM164.5 15.9a23.4 23.4 0 0 1-3.47 1.11c-.61.14-1.25.25-1.94.32a20.9 20.9 0 0 1-6.7-.42 10.77 10.77 0 0 1-3.56-1.59c-1-.7-1.77-1.59-2.32-2.64a7.91 7.91 0 0 1-.83-3.72 7.41 7.41 0 0 1 3.15-6.35c1-.71 2.19-1.24 3.56-1.6a20.9 20.9 0 0 1 6.7-.42 17.79 17.79 0 0 1 5.4 1.43v3.92c-.44-.24-.9-.48-1.4-.72a13.08 13.08 0 0 0-3.59-1.11c-.7-.13-1.5-.19-2.4-.19-1.36 0-2.5.14-3.4.42-.9.29-1.63.66-2.16 1.13-.54.47-.92 1-1.14 1.62a5.44 5.44 0 0 0 .28 4.33 4.35 4.35 0 0 0 2.17 1.83c.52.23 1.13.4 1.83.54a15.9 15.9 0 0 0 4.83.02 14.16 14.16 0 0 0 3.58-1.09c.5-.24.96-.49 1.4-.74v3.92ZM178.53 4.4V17h-4.34V4.4h-6.83V.9h18.02v3.5h-6.84ZM193.5.9v9.07c0 .6.05 1.15.15 1.64.1.48.3.9.56 1.25.28.35.66.62 1.15.81.5.19 1.13.28 1.92.28.6 0 1.22-.08 1.87-.24a12.97 12.97 0 0 0 3.77-1.6c.59-.36 1.11-.73 1.57-1.11V.9h4.34V17h-4.34v-2.2c-.55.3-1.13.63-1.75.95a15.59 15.59 0 0 1-4.18 1.46 12.01 12.01 0 0 1-5.39-.15 6.35 6.35 0 0 1-2.18-1.1 4.96 4.96 0 0 1-1.84-4.05V.9h4.35ZM229.65 4.54a10.86 10.86 0 0 0-1.29-.35 9.76 9.76 0 0 0-2.07-.24c-.78 0-1.51.1-2.2.29a10.62 10.62 0 0 0-3.53 1.84c-.5.4-.95.8-1.37 1.23V17h-4.35V.9h4.35V3.5c.52-.39 1.06-.76 1.6-1.12.56-.37 1.13-.7 1.72-.98.6-.28 1.24-.5 1.9-.66a8.39 8.39 0 0 1 2.97-.21 13.7 13.7 0 0 1 2.27.36v3.64ZM247.03 17v-1.58a17.17 17.17 0 0 1-5.9 1.77c-.73.08-1.47.13-2.21.13-.87 0-1.7-.09-2.52-.25a6.94 6.94 0 0 1-2.15-.8 4.44 4.44 0 0 1-1.5-1.44 4 4 0 0 1-.57-2.18c0-1.08.3-1.99.9-2.7a6.3 6.3 0 0 1 2.71-1.79 21.3 21.3 0 0 1 4.62-1.06c1.87-.25 4.07-.45 6.62-.59v-.34c0-.26-.07-.53-.21-.78-.14-.27-.4-.5-.78-.7-.36-.2-.87-.36-1.52-.49-.64-.12-1.46-.18-2.46-.18a24.58 24.58 0 0 0-8.34 1.54V1.67a32.32 32.32 0 0 1 3.96-.75 34.7 34.7 0 0 1 4.38-.32c1.35 0 2.6.1 3.74.34 1.14.21 2.12.56 2.94 1.03a5.4 5.4 0 0 1 1.93 1.78c.47.72.7 1.57.7 2.56V17h-4.34Zm0-7.35c-1.67.06-3.1.15-4.27.27-1.16.12-2.13.26-2.9.41-.78.16-1.39.33-1.83.5a3.7 3.7 0 0 0-.99.56c-.21.18-.35.37-.4.56-.05.19-.08.36-.08.51 0 .2.06.38.16.56.1.17.27.32.52.45.26.14.6.24 1.02.32a13.11 13.11 0 0 0 8.77-2.02V9.65ZM261.65 10.1c0 .68.06 1.23.19 1.66.13.42.33.76.61 1.01.28.25.64.42 1.09.52.45.09 1 .14 1.66.14h8.25V17h-9.14c-1.26 0-2.34-.1-3.23-.3a5.72 5.72 0 0 1-2.17-.97 3.8 3.8 0 0 1-1.23-1.65 6.72 6.72 0 0 1-.38-2.37V.9h4.35v9.2Z" fill="#000" />
</svg>