<svg width="24" height="24" xmlns="http://www.w3.org/2000/svg">
  <path d="M19.99 11.57a7.96 7.96 0 0 0-1.57-4.35 13.16 13.16 0 0 1-4.23 2.88l.45 1.01.1.27a19.2 19.2 0 0 1 5.25.2ZM10.6 4.12c.98 1.38 1.88 2.8 2.7 4.27a11.1 11.1 0 0 0 3.04-1.77c.29-.23.55-.48.8-.75a7.97 7.97 0 0 0-6.54-1.75ZM4.25 10a31.53 31.53 0 0 0 6.9-.95 54.37 54.37 0 0 0-2.7-4.22A8.02 8.02 0 0 0 4.25 10Zm1.53 7.04c.4-.57.9-1.21 1.58-1.9a12.62 12.62 0 0 1 5.15-3.3l.07-.01c-.17-.37-.32-.7-.48-1A30.09 30.09 0 0 1 4 12c0 1.84.63 3.61 1.78 5.04Zm9.23 2.38a35.94 35.94 0 0 0-1.64-5.71c-2 .72-3.6 1.79-4.83 3.05-.5.5-.94 1.06-1.31 1.66a7.96 7.96 0 0 0 7.78 1Zm1.87-1.08a8 8 0 0 0 2.98-4.87 12.2 12.2 0 0 0-4.42-.27c.6 1.68 1.08 3.4 1.44 5.14ZM12 22a10 10 0 1 1 0-20 10 10 0 0 1 0 20Z" fill="#000" />
</svg>