<svg width="24" height="24" xmlns="http://www.w3.org/2000/svg">
  <path d="M19.14 12.94a7.07 7.07 0 0 0-.01-1.88l2.03-1.58a.5.5 0 0 0 .12-.61l-1.92-3.32a.49.49 0 0 0-.59-.22l-2.39.96c-.5-.38-1.03-.7-1.62-.94l-.36-2.54a.48.48 0 0 0-.48-.41h-3.84a.47.47 0 0 0-.47.41l-.36 2.54c-.59.24-1.13.57-1.62.94l-2.39-.96a.48.48 0 0 0-.59.22L2.74 8.87c-.12.21-.08.47.12.61l2.03 1.58a5.87 5.87 0 0 0-.02 1.88l-2.03 1.58a.5.5 0 0 0-.12.61l1.92 3.32c.12.22.37.29.59.22l2.39-.96c.5.38 1.03.7 1.62.94l.36 2.54a.5.5 0 0 0 .48.41h3.84c.24 0 .44-.17.47-.41l.36-2.54a6.86 6.86 0 0 0 1.62-.94l2.39.96c.22.08.47 0 .59-.22l1.92-3.32c.12-.22.07-.47-.12-.61l-2.01-1.58ZM12 15.6A3.61 3.61 0 0 1 8.4 12c0-1.98 1.62-3.6 3.6-3.6s3.6 1.62 3.6 3.6-1.62 3.6-3.6 3.6Z" fill="#000" />
</svg>